<svg width="800" height="600" xmlns="http://www.w3.org/2000/svg">

 <g>
  <title>background</title>
  <rect fill="none" id="canvas_background" height="602" width="802" y="-1" x="-1"/>
 </g>
 <g>
  <title>Layer 1</title>
  <path id="svg_1" d="m497.128,121.654c0,-8.756 22.602,-15.246 53.781,-15.246s58.891,6.953 58.891,15.709s-26.314,18.082 -58.771,16.693c-31.153,-1.335 -53.901,-8.4 -53.901,-17.156" clip-rule="evenodd" fill-rule="evenodd"/>
  <path id="svg_2" d="m595.192,133.594c10.604,-4.17 20.029,-3.281 25.025,-6.09c-3.436,0.623 -6.33,0.244 -10.301,-1.871c6.242,-1.979 12.17,-4.58 17.139,-9.598c-2.781,2.314 -18.076,-1.123 -28.062,-6.215c-10.699,-5.459 -17.072,-14.123 -20.668,-24.258c-0.16,-0.45 0.764,-0.433 1.33,-1.402c-1.504,-0.502 -2.25,-1.403 -2.459,-2.137c-4.871,-17.083 -1.943,-40.314 2.543,-59.525c-3.232,2.99 -10.809,27.089 -12.578,33.019c-1.271,-3.239 -8.061,-16.037 -9.837,-17.71c-1.134,-1.066 2.108,8.419 0.878,7.952c-0.777,-0.294 -3.304,-5.08 -4.092,-5.145c-0.402,-0.159 1.41,4.584 0.072,4.887c-3.635,0.766 -7.035,3.93 -9.114,9.126c-1.04,-6.761 -4.06,-11.382 -6.657,-16.546c2.768,14.535 -0.6,40.611 -9.119,55.368c-0.411,0.713 -2.487,1.561 -5.338,1.625c1.449,1.393 3.559,1.197 3.303,1.559c-0.443,0.625 -2.15,1.234 -3.613,1.354c0.748,0.92 1.834,0.943 1.627,1.182c-0.691,0.801 -1.416,1.553 -2.17,2.252c-6.943,6.432 -20.287,10.969 -41.727,11.633c4.021,3.736 7.746,6.09 14.508,7.443c-1.664,1.455 -5.492,4.512 -8.51,4.721c3.629,2.473 9.312,3.949 13.377,4.533c0.729,0.105 -2.771,2.131 -2.013,2.24c3.011,0.434 8.591,-0.482 16.241,1.604l80.215,0l0,-0.001z" clip-rule="evenodd" fill-rule="evenodd"/>
  <path id="svg_3" d="m499.13,121.373c0,-8.371 24.279,-15.154 54.232,-15.154s54.232,6.783 54.232,15.154c0,8.369 -24.279,15.152 -54.232,15.152s-54.232,-6.783 -54.232,-15.152" fill="#FFFFFF"/>
  <path id="svg_4" d="m540.835,138.08c4.971,0.529 6.887,4.141 7.49,7.441c0.865,-0.623 1.49,-1.344 1.633,-2.951c3.049,2.039 3.77,9.768 0.646,14.932c6.748,-3.434 8.395,-14.357 7.275,-15.941c1.801,1.512 1.068,5.15 3.434,7.395c-0.053,-3.242 1.654,-9.268 6.359,-10.807c-1.97,-1.18 -23.35,-1.077 -26.837,-0.069" clip-rule="evenodd" fill-rule="evenodd"/>
  <path id="svg_5" d="m579.497,111.816c0,-0.549 0.76,-0.992 1.697,-0.992s1.697,0.443 1.697,0.992s-0.76,0.994 -1.697,0.994s-1.697,-0.445 -1.697,-0.994"/>
  <path id="svg_6" d="m583.995,114.729c0,-0.816 1.105,-1.477 2.471,-1.477c1.363,0 2.471,0.66 2.471,1.477c0,0.814 -1.107,1.477 -2.471,1.477c-1.365,-0.001 -2.471,-0.663 -2.471,-1.477"/>
  <path id="svg_7" d="m584.878,111.156c0,-0.428 0.465,-0.773 1.037,-0.773c0.57,0 1.035,0.346 1.035,0.773c0,0.426 -0.465,0.771 -1.035,0.771c-0.572,0.001 -1.037,-0.345 -1.037,-0.771"/>
  <path id="svg_8" d="m518.419,113.846c0,-0.814 1.106,-1.477 2.471,-1.477s2.471,0.662 2.471,1.477s-1.106,1.477 -2.471,1.477s-2.471,-0.663 -2.471,-1.477"/>
  <path id="svg_9" d="m525.347,111.113c0,-0.572 0.513,-1.035 1.145,-1.035c0.633,0 1.146,0.463 1.146,1.035s-0.514,1.035 -1.146,1.035c-0.633,0 -1.145,-0.462 -1.145,-1.035"/>
  <path id="svg_10" d="m526.093,113.957c0,-0.391 0.396,-0.705 0.883,-0.705c0.488,0 0.883,0.314 0.883,0.705c0,0.389 -0.395,0.703 -0.883,0.703c-0.488,0 -0.883,-0.314 -0.883,-0.703"/>
  <path id="svg_11" d="m534.187,135.553c31.182,2.295 57.006,-9.27 66.059,-17.094c-0.785,-1.113 -3.709,-1.854 -4.543,-1.848c1.533,-0.4 4.404,0.418 5.787,1.455c1.615,1.215 2.496,3.09 1.047,4.973c0.197,-2.246 -0.721,-3.512 -1.832,-4.297c-7.605,6.607 -22.328,18.189 -50.217,18.316l-16.301,-1.505z" clip-rule="evenodd" fill-rule="evenodd"/>
  <polygon id="svg_12" points="592.5789794921875,113.25 595.1690063476562,113.92400360107422 619.4619750976562,78.5929946899414 " clip-rule="evenodd" fill-rule="evenodd"/>
  <polygon id="svg_13" points="597.614013671875,114.63300323486328 600.0709838867188,115.64800262451172 619.2490234375,98.65599822998047 " clip-rule="evenodd" fill-rule="evenodd"/>
  <polygon id="svg_14" points="515.2340087890625,113.25 512.6440124511719,113.92400360107422 487.6029968261719,75.45500183105469 " clip-rule="evenodd" fill-rule="evenodd"/>
  <polygon id="svg_15" points="510.20001220703125,114.63300323486328 507.7409973144531,115.64800262451172 489.8699951171875,101.99600219726562 " clip-rule="evenodd" fill-rule="evenodd"/>
  <path id="svg_16" d="m573.851,94.396c0.811,-0.07 1.566,0.975 1.686,2.334c0.119,1.357 -0.443,2.518 -1.256,2.588c-0.812,0.072 -1.568,-0.973 -1.686,-2.332c-0.119,-1.359 0.443,-2.517 1.256,-2.59" fill="#FFFFFF"/>
  <path id="svg_17" d="m577.175,101.059c0.57,-0.049 1.076,0.422 1.133,1.053c0.055,0.629 -0.363,1.182 -0.932,1.23c-0.57,0.051 -1.078,-0.42 -1.133,-1.051s0.363,-1.182 0.932,-1.232" fill="#FFFFFF"/>
  <path id="svg_18" d="m574.409,102.051c0.387,-0.035 0.734,0.332 0.777,0.818s-0.236,0.906 -0.625,0.941c-0.387,0.033 -0.736,-0.334 -0.777,-0.818c-0.043,-0.486 0.237,-0.908 0.625,-0.941" fill="#FFFFFF"/>
  <path id="svg_19" d="m557.048,100.803c4.766,2.521 5.629,-18.856 11.719,-17.81c0.658,3.646 1.377,8.402 0.525,13.435c-1.4,8.279 -4.592,9.254 -7.445,9.793c-2.946,0.556 -5.026,-3.842 -4.799,-5.418" fill="#FFFFFF" clip-rule="evenodd" fill-rule="evenodd"/>
  <path id="svg_20" d="m557.087,93.426c0,-5.46 1.559,-9.888 3.483,-9.888c0.587,0 2.128,0.912 2.534,2.44c-1.612,1.206 -2.834,3.344 -3.344,5.058c1.121,-1 2.445,-1.917 3.875,-2.31c0.268,1.398 0.418,3 0.418,4.701c0,0.623 -0.02,1.232 -0.059,1.822c-0.029,0.434 -1.752,0.629 -2.82,1.033c1.068,0.629 2.602,1.041 2.537,1.422c-0.562,3.318 -1.758,5.611 -3.142,5.611c-1.923,-0.001 -3.482,-4.428 -3.482,-9.889" clip-rule="evenodd" fill-rule="evenodd"/>
  <path id="svg_21" d="m555.144,96.932c6.146,11.172 9.5,-32.793 14.348,-22.083l-0.984,-3.558c-6.505,-11.063 -6.236,34.52 -13.364,25.641" fill="#FFFFFF" clip-rule="evenodd" fill-rule="evenodd"/>
  <path id="svg_22" d="m569.2,83.503l-1.779,0.36l0.342,2.846l-1.271,-0.669c0.113,0.535 0.064,0.903 -0.188,1.389c-0.316,0.613 -1.027,0.113 -1.406,1.074c0.512,-0.886 0.996,-0.355 1.406,-0.848c0.275,-0.33 0.396,-0.564 0.506,-0.979l1.275,0.317l-0.152,-3.017l1.383,0.36l-0.116,-0.833z" clip-rule="evenodd" fill-rule="evenodd"/>
  <path id="svg_23" d="m571.126,90.293l-1.749,-0.487l-0.987,2.69l-0.83,-1.172c-0.14,0.527 -0.352,0.834 -0.795,1.152c-0.562,0.4 -0.968,-0.365 -1.744,0.318c0.859,-0.557 1.051,0.135 1.64,-0.117c0.396,-0.168 0.61,-0.322 0.896,-0.645l0.99,0.863l1.236,-2.756l1.066,0.948l0.277,-0.794z" clip-rule="evenodd" fill-rule="evenodd"/>
  <path id="svg_24" d="m571.46,97.85l-1.336,-1.229l-2.104,1.949l-0.205,-1.422c-0.365,0.406 -0.691,0.582 -1.232,0.666c-0.683,0.104 -0.695,-0.766 -1.697,-0.508c1.018,-0.105 0.875,0.598 1.514,0.641c0.43,0.029 0.689,-0.012 1.088,-0.168l0.494,1.219l2.35,-1.896l0.523,1.33l0.605,-0.582z" clip-rule="evenodd" fill-rule="evenodd"/>
  <path id="svg_25" d="m568.819,105.607l-0.633,-1.701l-2.757,0.781l0.462,-1.359c-0.51,0.195 -0.883,0.205 -1.4,0.033c-0.656,-0.219 -0.273,-0.998 -1.282,-1.223c0.955,0.367 0.507,0.928 1.058,1.258c0.367,0.221 0.619,0.303 1.046,0.344l-0.113,1.311l2.954,-0.623l-0.139,1.422l0.804,-0.243z" clip-rule="evenodd" fill-rule="evenodd"/>
  <path id="svg_26" d="m564.132,109.607l0.52,-1.74l-2.672,-1.035l1.186,-0.809c-0.524,-0.148 -0.828,-0.365 -1.138,-0.816c-0.393,-0.568 0.382,-0.961 -0.288,-1.746c0.541,0.867 -0.154,1.047 0.087,1.641c0.163,0.398 0.312,0.615 0.63,0.904l-0.88,0.977l2.733,1.283l-0.965,1.051l0.787,0.29z" clip-rule="evenodd" fill-rule="evenodd"/>
  <path id="svg_27" d="m552.234,98.053c-4.767,2.523 -5.628,-18.854 -11.718,-17.809c-0.658,3.646 -1.379,8.401 -0.526,13.434c1.401,8.281 4.591,9.256 7.446,9.795c2.946,0.556 5.026,-3.844 4.798,-5.42" fill="#FFFFFF" clip-rule="evenodd" fill-rule="evenodd"/>
  <path id="svg_28" d="m552.196,90.677c0,-5.462 -1.56,-9.888 -3.484,-9.888c-0.588,0 -2.127,0.912 -2.535,2.439c1.613,1.205 2.836,3.344 3.344,5.058c-1.119,-1.001 -2.443,-1.918 -3.873,-2.31c-0.268,1.397 -0.418,2.999 -0.418,4.701c0,0.622 0.02,1.231 0.059,1.821c0.028,0.436 1.752,0.631 2.821,1.033c-1.069,0.631 -2.604,1.041 -2.538,1.424c0.561,3.318 1.758,5.609 3.141,5.609c1.924,0 3.483,-4.427 3.483,-9.887" clip-rule="evenodd" fill-rule="evenodd"/>
  <path id="svg_29" d="m554.14,94.182c-6.148,11.172 -9.404,-38.554 -14.252,-27.844l0.984,-3.557c6.504,-11.065 6.138,40.281 13.268,31.401" fill="#FFFFFF" clip-rule="evenodd" fill-rule="evenodd"/>
  <path id="svg_30" d="m540.081,80.754l1.78,0.359l-0.341,2.846l1.271,-0.669c-0.114,0.534 -0.064,0.902 0.186,1.388c0.318,0.614 1.029,0.114 1.408,1.075c-0.512,-0.886 -0.996,-0.356 -1.408,-0.848c-0.275,-0.33 -0.395,-0.563 -0.504,-0.979l-1.275,0.316l0.152,-3.015l-1.383,0.359l0.114,-0.832z" clip-rule="evenodd" fill-rule="evenodd"/>
  <path id="svg_31" d="m538.156,87.545l1.749,-0.487l0.988,2.689l0.828,-1.173c0.141,0.527 0.353,0.834 0.797,1.152c0.562,0.402 0.968,-0.365 1.742,0.318c-0.857,-0.556 -1.049,0.136 -1.639,-0.116c-0.395,-0.169 -0.609,-0.322 -0.895,-0.645l-0.992,0.862l-1.234,-2.756l-1.068,0.947l-0.276,-0.791z" clip-rule="evenodd" fill-rule="evenodd"/>
  <path id="svg_32" d="m537.822,95.102l1.337,-1.229l2.102,1.947l0.206,-1.422c0.364,0.408 0.692,0.584 1.233,0.666c0.683,0.104 0.695,-0.766 1.695,-0.506c-1.016,-0.107 -0.873,0.596 -1.512,0.639c-0.43,0.029 -0.689,-0.01 -1.09,-0.168l-0.492,1.219l-2.352,-1.895l-0.521,1.328l-0.606,-0.579z" clip-rule="evenodd" fill-rule="evenodd"/>
  <path id="svg_33" d="m540.463,102.857l0.633,-1.701l2.757,0.783l-0.461,-1.361c0.51,0.197 0.883,0.205 1.4,0.033c0.655,-0.217 0.273,-0.998 1.281,-1.223c-0.953,0.367 -0.507,0.93 -1.057,1.258c-0.369,0.221 -0.619,0.303 -1.047,0.346l0.113,1.309l-2.955,-0.621l0.139,1.422l-0.803,-0.245z" clip-rule="evenodd" fill-rule="evenodd"/>
  <path id="svg_34" d="m545.15,106.859l-0.519,-1.74l2.672,-1.035l-1.188,-0.809c0.525,-0.15 0.829,-0.367 1.139,-0.816c0.393,-0.568 -0.383,-0.961 0.289,-1.748c-0.543,0.869 0.152,1.047 -0.088,1.641c-0.162,0.398 -0.312,0.615 -0.629,0.906l0.879,0.977l-2.734,1.283l0.967,1.051l-0.788,0.29z" clip-rule="evenodd" fill-rule="evenodd"/>
  <path id="svg_35" d="m563.579,106.523c2.227,-0.043 5.398,-1.959 6.027,-5.459c-0.043,4.616 -4.014,5.674 -6.027,5.459" fill="#FFFFFF" clip-rule="evenodd" fill-rule="evenodd"/>
  <path id="svg_36" d="m548.116,105.672c-2.818,0.295 -9.693,-1.582 -9.871,-8.232c-0.295,8.703 8.114,8.998 9.871,8.232" fill="#FFFFFF" clip-rule="evenodd" fill-rule="evenodd"/>
  <path id="svg_37" d="m531.346,113.578c0,-4.377 10.073,-7.928 22.501,-7.928s22.5,3.551 22.5,7.928c0,4.379 -10.072,7.93 -22.5,7.93s-22.501,-3.551 -22.501,-7.93"/>
  <path id="svg_38" d="m546.243,109.256c0,-0.678 3.105,-1.229 6.936,-1.229s6.936,0.551 6.936,1.229c0,0.68 -3.105,1.23 -6.936,1.23s-6.936,-0.55 -6.936,-1.23" fill="#FFFFFF"/>
  <path id="svg_39" d="m605.542,138.291c4.109,-9.449 41.904,-7.172 32.234,-23.178l-21.398,-4.279l16.006,-11.061c-15.783,-4.502 -0.943,-26.174 -3.168,-43.07" stroke-miterlimit="3.864" stroke-width="0.971" stroke="#231F20" fill="none"/>
  <path id="svg_40" d="m523.177,130.221c0,-0.475 0.617,-0.859 1.379,-0.859s1.379,0.385 1.379,0.859c0,0.477 -0.617,0.861 -1.379,0.861s-1.379,-0.385 -1.379,-0.861"/>
  <path id="svg_41" d="m520.157,127.934c0,-0.359 0.328,-0.65 0.73,-0.65c0.404,0 0.73,0.291 0.73,0.65c0,0.357 -0.326,0.648 -0.73,0.648c-0.402,0 -0.73,-0.291 -0.73,-0.648"/>
  <path id="svg_42" d="m530.8,98.654c0.561,-0.801 1.426,-1.162 1.932,-0.807c0.507,0.355 0.463,1.291 -0.098,2.092s-1.426,1.162 -1.932,0.807s-0.463,-1.291 0.098,-2.092" fill="#FFFFFF"/>
  <path id="svg_43" d="m547.28,54.706c0.361,-0.635 0.986,-0.984 1.396,-0.778c0.412,0.204 0.453,0.886 0.094,1.521s-0.984,0.984 -1.396,0.779c-0.411,-0.205 -0.453,-0.887 -0.094,-1.522" fill="#FFFFFF"/>
  <path id="svg_44" d="m550.329,52.537c0.193,-0.342 0.559,-0.514 0.816,-0.386c0.258,0.128 0.309,0.509 0.115,0.851c-0.192,0.342 -0.557,0.514 -0.815,0.386c-0.257,-0.13 -0.309,-0.511 -0.116,-0.851" fill="#FFFFFF"/>
  <path id="svg_45" d="m612.78,146.928l-14.67,1.295c4.047,5.166 9.641,6.605 12.527,5.188c0.395,-2.743 1.149,-4.321 2.143,-6.483" fill="#FFFFFF" clip-rule="evenodd" fill-rule="evenodd"/>
  <polygon id="svg_46" points="609.822998046875,143.21299743652344 611.8679809570312,144.20899963378906 604.8820190429688,151.25399780273438 " clip-rule="evenodd" fill-rule="evenodd"/>
  <path id="svg_47" d="m577.13,130.344c0.695,-0.326 0.955,-0.92 1.771,-1.143c0.818,-0.225 1.273,0 2.123,-0.262l26.814,12.664l-2.775,4.541l4.051,-3.738l-5.271,7.805l-1.613,-1.15l3.023,-5.084l-3.66,4.252l-19.043,-13.139l-4.627,0.559c0,0 0.768,-1.35 0.523,-2.619c-0.326,-1.698 -1.316,-2.686 -1.316,-2.686" clip-rule="evenodd" fill-rule="evenodd"/>
  <path id="svg_48" d="m601.536,151.85c2.447,2.002 6.059,2.893 9.004,1.557c4.059,-26.123 43.686,-21.619 33.918,-39.947l-24.467,-3.346l20.285,-9.672c-22.289,-7.002 -9.449,-23.897 -9.672,-39.458" stroke-miterlimit="3.864" stroke-width="0.971" stroke="#231F20" fill="none"/>
  <path id="svg_49" d="m579.259,131.408c-0.945,-1.445 1.666,-1.836 2.617,-1.24l21.947,11.617l-2.703,2.602l-21.861,-12.979z" fill="#FFFFFF" clip-rule="evenodd" fill-rule="evenodd"/>
  <path id="svg_50" d="m587.847,132.824c-1.258,-0.469 -3.486,1.34 -2.85,2.43" stroke-miterlimit="3.864" stroke-width="0.971" stroke="#0E004D" fill="none"/>
  <path stroke="null" id="svg_51" d="m330.954059,125.656271l7.427835,-20.893651c-5.466609,-0.399178 -15.507548,-2.775235 -20.408376,11.007016c-4.615701,12.986132 8.194882,9.81731 12.980541,9.886635m11.798662,12.883263c0,0 -24.631608,0.201266 -32.620752,0.201266c-12.976069,0 -10.122563,-11.98092 -4.175152,-27.560029c8.370431,-21.941352 25.58874,-17.576116 36.67179,-18.361053l1.853884,-5.216145c0.888925,-2.505762 0.888925,-4.507241 0.004473,-6.004437c-0.854263,-1.493841 -2.607513,-2.24188 -5.260871,-2.24188c-2.917239,0 -13.308157,-1.250086 -20.296561,-0.483038l3.474075,-9.766993c9.073744,0.310844 20.85787,-0.519937 24.525385,-0.522174c6.396905,0 10.799041,1.814749 13.214233,5.44201c2.408484,3.629497 1.214305,12.19784 -1.083482,18.666307l-16.307021,45.846166zm-135.645481,-83.468379l-145.003233,0c-3.926924,0 -6.888889,0.805064 -8.879187,2.411838c-1.993652,1.610128 -3.722304,4.47146 -5.183719,8.583996l-1.304875,3.670869l17.913795,0l-3.671987,10.330538l-17.914913,0l-20.989811,59.038037l-19.073311,0l25.887285,-72.814697c2.779708,-7.815831 6.467349,-13.406554 11.069632,-16.774406c4.649245,-3.401396 11.068514,-5.100976 19.26116,-5.10433l151.678557,0l-3.789392,10.658155zm-131.38535,84.036397l-11.219463,0c-4.413317,0 -7.32832,-1.216541 -8.745009,-3.645152c-1.405508,-2.469982 -1.242259,-6.131905 0.487511,-10.995834l22.306986,-62.746923l17.895905,0l-22.048694,62.015656c-0.717849,2.020487 -0.781583,3.461776 -0.190085,4.319393c0.629515,0.86209 2.288842,1.292575 4.983571,1.292575l-3.470721,9.760285zm107.397793,-18.849682c-2.1815,6.134141 -5.715955,10.922037 -10.602247,14.36145c-4.840448,3.40475 -10.436762,5.103212 -16.793414,5.105448c-6.845281,0 -11.440856,-1.587765 -13.78896,-4.770005c-2.297787,-3.214666 -2.308969,-8.019333 -0.034662,-14.418475l14.474382,0c-0.932533,2.620931 -1.143862,4.527368 -0.63287,5.723782c0.544536,1.196415 1.753251,1.793504 3.625025,1.793504c1.794622,0 3.307472,-0.465148 4.537431,-1.399917c1.229959,-0.937005 2.177028,-2.339159 2.842324,-4.208696c0.611625,-1.718588 0.322026,-3.588126 -0.865444,-5.61085c-1.152807,-2.018251 -3.221375,-4.878465 -6.205703,-8.582878c-3.786038,-4.71298 -5.788635,-8.807625 -6.010027,-12.286173c-0.222511,-3.47743 0.576963,-7.777814 2.39842,-12.902271c1.888546,-5.308951 5.222854,-9.534419 10.005158,-12.677524c4.833739,-3.177767 10.258977,-4.766651 16.281304,-4.768887c6.431568,0 10.771087,1.6269 13.018558,4.881819c2.246353,3.253801 2.304496,7.872856 0.178903,13.856048l-14.248517,0c0.770402,-2.169201 0.907933,-3.925806 0.41595,-5.274288c-0.495338,-1.345128 -1.601183,-2.018251 -3.322008,-2.018251c-1.458061,0 -2.834497,0.447258 -4.124836,1.345128c-1.242259,0.86209 -2.153547,2.11553 -2.738336,3.759202c-0.705549,1.98247 -0.848672,3.910152 -0.427131,5.778571c0.469621,1.833757 2.662302,5.236271 6.580281,10.208661c3.453949,4.376418 5.56277,8.172519 6.328699,11.389421c0.812891,3.181121 0.515465,6.751357 -0.892279,10.71518m47.433932,18.849682l-17.950694,0l19.683818,-55.368286c0.77152,-2.169201 0.806182,-3.740194 0.105106,-4.71298c-0.65076,-1.009685 -1.948926,-1.515086 -3.89338,-1.515086c-0.89787,0 -1.941099,0.09616 -3.128569,0.281772c-1.176288,0.149831 -2.191563,0.374578 -3.044708,0.673123l-21.560065,60.641456l-17.895905,0l33.667335,-94.693433l17.894787,0l-8.675684,24.402389c1.894137,-1.121499 3.935869,-1.924327 6.131905,-2.411838c2.203863,-0.522174 4.578802,-0.783819 7.122581,-0.786056c5.61085,0 9.409187,1.516204 11.399485,4.54414c2.038378,2.992155 2.067449,7.275767 0.086097,12.846364l-19.94211,56.098435zm70.911615,-38.034808c-1.33171,3.741312 -2.60975,7.123699 -3.835236,10.15499c-1.177406,2.992155 -2.538188,6.188931 -4.085701,9.591445c-2.620931,5.798698 -6.21353,10.3775 -10.77556,13.745352c-4.563148,3.365615 -9.744631,5.047305 -15.538856,5.047305c-2.768526,0 -4.875111,-0.224747 -6.323108,-0.673123c-1.436816,-0.485275 -2.749518,-1.214305 -3.936987,-2.188209l-2.069686,2.355931l-14.810944,0l33.665099,-94.693433l17.895905,0l-8.794208,24.73895c1.605656,-1.046583 3.645152,-1.887428 6.112897,-2.524771c2.485636,-0.672005 5.033887,-1.009685 7.652582,-1.009685c4.71298,0 7.916464,1.402153 9.613808,4.208696c1.732006,2.804307 1.998124,6.995113 0.803946,12.565709c-0.458439,2.131184 -1.198651,4.89971 -2.220635,8.302224c-0.986204,3.405869 -2.104348,6.86429 -3.353316,10.378619m-18.650653,0.224747c0.852026,-2.393948 1.740951,-5.047305 2.664539,-7.966781c0.97614,-2.954138 1.893019,-5.965302 2.762935,-9.032372c0.840845,-2.991037 0.91017,-4.878465 0.220274,-5.665639c-0.68095,-0.821836 -1.993652,-1.232195 -3.936987,-1.234432c-0.712258,0 -1.467006,0.076034 -2.268715,0.223629c-0.788292,0.114051 -1.658209,0.300781 -2.60975,0.562427l-17.652149,49.64674c0.327616,0.449494 0.884452,0.822954 1.677217,1.122617c0.803946,0.261646 1.804685,0.393587 3.003337,0.393587c1.569875,0 3.006691,-0.52441 4.316038,-1.572111c1.341774,-1.046583 2.557197,-2.786416 3.648506,-5.217263c0.655233,-1.420044 1.882956,-4.502768 3.684287,-9.254883c1.850529,-4.785659 3.346607,-8.788617 4.490469,-12.005519m130.064821,-13.968981l-15.761367,0c1.567639,-4.413317 2.240762,-7.254522 2.020487,-8.526971c-0.172194,-1.308229 -1.02422,-1.961226 -2.554961,-1.96458c-2.584032,0 -4.871756,1.870656 -6.874353,5.609732c-1.952281,3.703295 -4.662663,10.434526 -8.134502,20.195928c-3.98954,11.220581 -6.149796,18.344281 -6.477412,21.375571c-0.316435,2.992155 0.797237,4.485996 3.341016,4.485996c1.569875,0 2.895995,-0.467384 3.97724,-1.402153c1.118145,-0.932533 2.358167,-2.955256 3.723422,-6.058108l13.298094,0c-2.273188,6.394669 -5.623149,11.126657 -10.039821,14.19261c-4.404372,3.029054 -9.939188,4.541904 -16.593266,4.541904c-7.517286,0 -12.118452,-3.102851 -13.800141,-9.311909c-1.670508,-6.24372 -0.316435,-15.518729 4.059983,-27.825029c4.346228,-12.229148 9.641761,-21.447132 15.889953,-27.655071c6.259374,-6.244838 13.443453,-9.367816 21.561183,-9.370052c6.468467,0 10.785623,1.79574 12.952588,5.386103c2.202745,3.591481 2.00707,9.033491 -0.588144,16.32603m-296.72987,38.880125l7.428953,-20.891414c-5.466609,-0.401414 -15.508666,-2.777471 -20.407258,11.00478c-4.617937,12.986132 8.193764,9.81731 12.978305,9.886635m11.802017,12.885499c0,0 -24.634963,0.19903 -32.620752,0.19903c-12.979423,0 -10.122563,-11.98092 -4.178507,-27.560029c8.371549,-21.940234 25.589858,-17.573879 36.67179,-18.359935l1.855002,-5.216145c0.890043,-2.504644 0.890043,-4.506123 0.002236,-6.0022c-0.853144,-1.496078 -2.607513,-2.242998 -5.260871,-2.245234c-2.917239,0 -13.304803,-1.247849 -20.295443,-0.483038l3.472957,-9.765875c9.077098,0.310844 20.861225,-0.518819 24.527621,-0.521055c6.394669,0 10.797923,1.813631 13.211997,5.440892c2.411838,3.629497 1.216541,12.19784 -1.082364,18.666307l-16.303667,45.847285zm306.775281,-36.447043l4.431207,0c1.908673,0 3.238147,0.563545 4.002958,1.683926c0.808419,1.083482 0.829663,2.712619 0.059262,4.880701l-5.125575,14.418475c-1.899728,5.348086 -2.10323,9.329799 -0.60268,11.948494s4.53184,3.926924 9.096107,3.926924l8.91944,0l3.468485,-9.761403c-2.206099,0 -3.590362,-0.25941 -4.149435,-0.783819c-0.513228,-0.559072 -0.489747,-1.6269 0.069325,-3.196776l6.223593,-17.503436c1.273567,-3.590362 1.269094,-6.355534 -0.022363,-8.303342c-1.280276,-1.979116 -3.750257,-2.972028 -7.416653,-2.972028c1.467006,-0.336562 2.714855,-0.89787 3.743548,-1.68169c1.037638,-0.822954 2.644412,-2.975383 4.815849,-6.452813l13.970099,-21.933525l-14.867969,0l-14.022652,22.719581c-0.803946,1.310466 -1.60901,2.207218 -2.415192,2.692492c-0.758102,0.448376 -1.69958,0.673123 -2.818843,0.673123l-3.91127,-0.024599l9.451677,-26.582771c2.779708,-7.815831 3.065953,-13.406554 0.858735,-16.77217c-2.22958,-3.403632 -7.437898,-5.10433 -15.630544,-5.105448l-136.427064,0l-3.789392,10.658155l129.748386,0c3.92916,0 6.317517,0.805064 7.165071,2.412956c0.852026,1.60901 0.541182,4.469224 -0.919115,8.582878l-26.062833,73.306681l19.072193,0c0,-0.003354 8.216127,-23.202619 13.085647,-36.830566" clip-rule="evenodd" fill-rule="evenodd"/>
 </g>
</svg>